<?xml version="1.0" standalone="no"?>
<!DOCTYPE svg PUBLIC "-//W3C//DTD SVG 20010904//EN"
 "http://www.w3.org/TR/2001/REC-SVG-20010904/DTD/svg10.dtd">
<svg version="1.0" xmlns="http://www.w3.org/2000/svg"
 width="256.000000pt" height="256.000000pt" viewBox="0 0 256.000000 256.000000"
 preserveAspectRatio="xMidYMid meet">
<metadata>
Created by potrace 1.14, written by Peter Selinger 2001-2017
</metadata>
<g transform="translate(0.000000,256.000000) scale(0.100000,-0.100000)"
fill="#000000" stroke="none">
<path d="M452 2222 c-47 -20 -89 -61 -115 -113 -15 -31 -16 -107 -17 -817 0
-558 3 -795 11 -822 15 -50 68 -108 119 -131 39 -17 87 -19 824 -19 875 0 839
-3 906 70 20 22 42 57 48 79 17 56 17 1568 0 1625 -12 38 -84 125 -107 127
-26 3 -30 4 -37 11 -4 4 -363 7 -798 7 -727 0 -794 -1 -834 -17z m1131 -411
c15 -1 17 -13 17 -106 l0 -105 -214 0 -215 0 1 -105 c0 -83 3 -105 14 -105 8
-1 59 -1 114 -1 163 -1 230 -31 275 -124 24 -49 26 -60 24 -200 -1 -161 -8
-191 -59 -249 -53 -60 -86 -66 -348 -69 l-232 -2 0 108 0 107 214 0 214 0 1
108 0 107 -123 -1 c-170 -2 -231 25 -284 121 -14 25 -17 61 -17 200 0 151 2
173 19 200 53 81 93 106 186 114 51 5 303 6 413 2z"/>
</g>
</svg>
